<?xml version="1.0" encoding="UTF-8" standalone="no"?>
<!-- Created with Inkscape (http://www.inkscape.org/) -->
<svg id="svg3962" xmlns:inkscape="http://www.inkscape.org/namespaces/inkscape" xmlns:rdf="http://www.w3.org/1999/02/22-rdf-syntax-ns#" xmlns="http://www.w3.org/2000/svg" sodipodi:docname="mozilla-francophone_svg.svg" height="288.02" width="642.12" version="1.1" xmlns:cc="http://creativecommons.org/ns#" xmlns:dc="http://purl.org/dc/elements/1.1/" inkscape:version="0.91 r" viewBox="0 0 642.12299 288.025" xmlns:sodipodi="http://sodipodi.sourceforge.net/DTD/sodipodi-0.dtd">
 <sodipodi:namedview id="base" bordercolor="#666666" inkscape:pageshadow="2" inkscape:window-y="-3" pagecolor="#ffffff" inkscape:window-height="1025" inkscape:window-maximized="1" inkscape:zoom="0.34752691" inkscape:window-x="-4" showgrid="false" borderopacity="1.0" inkscape:current-layer="layer1" inkscape:cx="759.63471" inkscape:cy="323.24881" units="px" inkscape:window-width="1920" inkscape:pageopacity="0.0" inkscape:document-units="px"/>
 <metadata id="metadata3967">
  <rdf:RDF>
   <cc:Work rdf:about="">
    <dc:format>image/svg+xml</dc:format>
    <dc:type rdf:resource="http://purl.org/dc/dcmitype/StillImage"/>
    <dc:title/>
   </cc:Work>
  </rdf:RDF>
 </metadata>
 <g id="layer1" inkscape:label="Calque 1" inkscape:groupmode="layer" transform="translate(0 -764.34)">
  <g id="g3402">
   <g id="g3364">
    <g id="g3353">
     <g id="g3341">
      <g id="flowRoot3556-7-4-7-0-0-6-4-8" style="color-rendering:auto;color:#000000;isolation:auto;mix-blend-mode:normal;shape-rendering:auto;solid-color:#000000;image-rendering:auto" transform="matrix(.11221 0 0 .11221 .00022249 764.34)">
       <path id="path3377" style="color-rendering:auto;color:#000000;isolation:auto;mix-blend-mode:normal;shape-rendering:auto;solid-color:#000000;image-rendering:auto" d="m5529.8 1386.6q-8.2732 3.3093-16.546 4.9639-6.6185 0-11.582 0-26.474 0-39.711-11.582-11.582-13.237-11.582-46.33v-322.65q0-64.53-24.819-110.86-23.165-47.984-64.53-79.422-41.366-33.092-94.314-47.984-52.948-16.546-112.51-16.546-46.33 0-84.386 3.3092-36.402 3.3092-74.458 11.582-36.402 8.2731-76.113 21.51-38.056 11.582-86.04 31.438l-28.129 172.08 168.77 19.856 24.819-84.386q26.474-14.892 52.948-18.201 28.129-3.3092 62.876-3.3092 44.675 0 67.84 14.892 24.819 14.892 36.402 39.711 11.582 23.165 13.237 52.948 1.6546 29.783 1.6546 59.566v24.819q-28.129-4.9638-59.566-4.9638-29.783-1.6547-59.566-1.6547-64.53 0-127.41 9.9278-62.876 9.9277-112.51 34.747-47.984 24.819-77.767 69.494-29.783 43.02-29.783 110.86 0 59.566 19.856 100.93 21.51 39.711 52.948 64.53 33.092 24.819 74.458 36.402 41.366 11.582 81.077 11.582 44.675 0 81.077-13.237 38.056-11.582 67.84-31.438 29.783-21.51 51.293-47.984 23.165-26.474 38.056-54.603 8.2731 69.494 47.984 109.21 41.366 38.056 117.48 38.056 34.747 0 69.494-9.9277 34.747-8.2731 64.53-24.819l-3.3092-112.51zm-456.68-3.3092q-47.984 0-69.494-24.819-19.856-26.474-19.856-61.221 0-62.876 43.02-82.731 43.02-21.51 100.93-21.51 26.474 0 52.948 3.3093 26.474 3.3092 52.948 6.6185-1.6546 46.33-16.546 81.077-14.892 33.092-38.056 56.257-21.51 21.51-49.639 33.092-28.129 9.9278-56.257 9.9278zm-498.1-1004.4-321 1138.4h208.48l322.65-1138.4h-210.14zm-431.86 0-322.65 1138.4h210.14l322.65-1138.4h-210.14zm-685.01 392.15v268.05h221.72v-268.05h-221.72zm0 478.19v268.05h221.72v-268.05h-221.72zm-325.96-8.2732-34.747 115.82h-241.58l413.66-474.88-16.546-110.86h-656.89l-26.474 261.43 157.19 16.546 33.092-117.48h231.65l-410.35 473.22 21.51 112.51h653.58l44.675-261.43-168.77-14.892zm-1068.8-484.73q-100.93 0-177.04 31.438-74.458 31.438-124.1 86.04-49.639 54.603-74.458 127.41-24.819 72.804-24.819 153.88 0 89.35 28.129 160.5 28.129 71.149 79.422 119.13 51.293 47.984 122.44 74.458 71.149 24.819 158.84 24.819 89.35 0 163.81-26.474 76.113-28.129 130.72-77.767 56.257-51.293 86.04-122.44 31.438-71.149 31.438-160.5 0-79.422-24.819-148.92-24.819-71.149-74.458-124.1-49.639-54.603-125.75-86.04-74.458-31.438-175.39-31.438zm-6.6185 613.87q-43.02 0-76.113-16.546-31.438-18.201-54.603-49.639-21.51-31.438-33.092-72.804t-11.582-89.35q0-104.24 47.984-162.15 47.984-59.566 130.72-59.566 76.113 0 129.06 52.948 52.948 52.948 52.948 165.46 0 107.55-51.293 170.43-49.639 61.221-134.02 61.221zm-585.74-13.237v-340.85q0-66.185-21.51-115.82-21.51-49.639-57.912-81.077-34.747-31.438-81.077-46.329-44.675-16.546-94.314-16.546-89.35 0-152.23 44.675-62.876 43.02-92.659 117.48-26.474-84.386-94.314-122.44-66.185-39.711-148.92-39.711-79.422 0-137.33 34.747-56.257 34.747-89.35 92.659v-112.51h-312.72v162.15h99.278v423.58h-99.278v160.5h453.37v-160.5h-140.64v-261.43q0-79.422 33.092-127.41 34.747-49.639 110.86-49.639 62.876 0 94.314 41.366 33.092 41.366 33.092 138.99v418.62h312.72v-160.5h-99.277v-261.43q0-79.422 33.092-127.41 33.092-49.639 109.21-49.639 66.185 0 97.623 41.366 33.092 41.366 33.092 138.99v418.62h312.72v-160.5h-100.93zm-1471-1356.8h5716.7v1869.7h-5716.7v-1869.7z"/>
      </g>
      <g id="flowRoot3589-9-9-7-9-9-5-0-0" style="color-rendering:auto;color:#000000;isolation:auto;mix-blend-mode:normal;shape-rendering:auto;solid-color:#000000;image-rendering:auto" transform="matrix(.83038 0 0 .54465 265.48 -2350.7)">
       <path id="path3380" style="" d="m-282.8 6116.3q4.4866 0 7.5259 0.8684 3.184 0.7236 6.2234 3.3287l2.3157 14.328-6.6576 0.8684-2.6051-11.289q-2.8946-1.1578-7.9601-1.1578-6.0786 0-9.4074 4.3419-3.184 4.3419-3.184 12.736v12.736h16.933v6.8023h-16.933v50.8h15.631v6.6576h-35.459v-6.6576h11.868v-50.8h-9.5521v-6.8023h9.5521v-12.447q0-5.7892 1.7368-10.276 1.8815-4.6313 4.9208-7.6706 3.0393-3.1841 6.947-4.7761t8.1048-1.592z"/>
       <path id="path3382" style="" d="m-234.83 6151.9q3.4735 0 5.9339 0.7237 2.4604 0.5789 4.6313 2.6051l2.3157 14.328-6.6576 0.8684-2.4604-11q-2.1709-0.5789-4.9208-0.5789-3.184 0-5.7892 1.4473-2.6051 1.4473-4.6313 3.9077-1.8815 2.4604-3.0393 6.0786-1.0131 3.4735-1.0131 7.526v32.854h15.776v6.6576h-35.748v-6.6576h12.013v-50.8h-12.157v-6.8023h19.683v11.434q2.0262-5.4998 6.3681-8.9733 4.4866-3.6182 9.6969-3.6182z"/>
       <path id="path3384" style="" d="m-202.54 6158.1q4.0524-3.3288 9.6969-4.7761 5.6444-1.592 11.578-1.592 11.434 0 16.789 5.355 5.4997 5.3549 5.4997 16.21v31.262q0 7.3812 5.6444 7.3812 1.1578 0 2.4604-0.1448 1.3026-0.2894 2.3157-0.8683l0.14472 5.7891q-3.184 2.0262-7.5259 2.0262-5.355 0-8.2496-3.4735-2.7499-3.4735-2.7499-9.5521v-0.2894q-3.0393 5.2102-8.6838 9.2626-5.6444 4.0524-13.46 4.0524-3.184 0-6.6576-0.8683-3.3288-0.8684-6.2234-2.8946-2.8946-2.171-4.7761-5.4997-1.8815-3.4735-1.8815-8.6838 0-6.0786 2.6051-9.8416 2.7499-3.9077 7.0917-6.0786 4.3419-2.3157 9.6969-3.0393 5.355-0.8684 10.71-0.8684 3.0393 0 5.9339 0.1447 3.0393 0.1448 5.6444 0.4342v-6.8023q0-7.3812-3.3288-11.578-3.3288-4.3419-12.302-4.3419-3.3288 0-6.6576 0.7237-3.3288 0.5789-6.3681 2.1709l-2.6051 11.578-6.6576-0.8683 2.3157-14.328zm35.603 29.67q-2.8946-0.2895-6.0786-0.4342-3.0393-0.2895-6.5128-0.2895-3.9077 0-7.6706 0.5789-3.6182 0.4342-6.6576 1.8815-2.8946 1.4473-4.6313 3.9077-1.7368 2.4604-1.7368 6.5128 0 3.4735 1.1578 5.7892 1.3026 2.1709 3.184 3.6182 2.0262 1.3026 4.3419 1.8815 2.3157 0.4342 4.4866 0.4342 3.6182 0 7.0917-1.3026 3.4735-1.3025 6.2234-3.6182 2.8946-2.4604 4.6313-5.6444 1.8815-3.3288 2.1709-7.3812v-5.9339z"/>
       <path id="path3386" style="" d="m-96.52 6217.3v-6.6576h11.868v-31.985q0-5.4997-1.3026-9.2626-1.1578-3.763-3.3288-6.0787-2.1709-2.4604-5.0655-3.4735t-6.2234-1.0131q-4.6313 0-8.539 1.7368-3.763 1.592-6.5128 4.4866-2.6051 2.7498-4.1972 6.3681-1.592 3.4735-1.7368 7.2364v31.985h11.868v6.6576h-31.84v-6.6576h12.013v-50.8h-12.157v-6.8023h20.117v11.868q3.3288-6.0786 9.118-9.5521 5.9339-3.6182 13.749-3.6182 4.7761 0 8.8285 1.4473t6.947 4.4866 4.4866 7.8154q1.7368 4.776 1.7368 11.289v33.867h11.868v6.6576h-31.696z"/>
       <path id="path3388" style="" d="m-2.6832 6196.3q-0.72365 4.1972-2.6051 8.2496-1.7368 4.0524-4.9208 7.2364-3.184 3.0394-7.9601 5.0656-4.6313 1.8814-10.855 1.8814-13.315 0-20.986-8.539-7.5259-8.6837-7.5259-24.025 0-6.2234 1.592-12.302 1.7368-6.2234 5.355-11.144 3.6182-4.9208 8.9732-7.9601 5.4997-3.0393 13.17-3.0393 6.6575 0 11.723 1.592 5.2103 1.592 9.8416 5.355l2.3157 14.328-6.6575 0.8684-2.4604-10.855q-5.9339-4.1972-14.762-4.1972-5.7892 0-9.6969 2.3157-3.9077 2.1709-6.3681 5.9339-2.3157 3.6182-3.4735 8.539-1.0131 4.7761-1.0131 9.9863 0 12.302 5.355 19.249 5.355 6.8023 15.486 6.8023 8.1048 0 12.591-4.3419 4.4866-4.3418 6.0786-12.591l6.8023 1.592z"/>
       <path id="path3390" style="" d="m70.692 6185.2q0 7.2365-2.1709 13.46-2.1709 6.0786-6.2234 10.565-4.0524 4.4866-9.8416 7.0917-5.7892 2.4604-13.17 2.4604-7.2365 0-13.026-2.4604-5.6444-2.6051-9.5521-6.947-3.9077-4.4866-5.9339-10.565-2.0262-6.0786-2.0262-13.17 0-6.947 2.0262-13.17 2.0262-6.2234 5.9339-10.71 3.9077-4.6313 9.6969-7.2365 5.7892-2.7498 13.46-2.7498 7.5259 0 13.315 2.7498 5.7892 2.6052 9.6969 7.2365 3.9077 4.4866 5.7892 10.565 2.0262 6.0787 2.0262 12.881zm-8.539-0.1447q0-5.6444-1.4473-10.42-1.4473-4.7761-4.3419-8.2496-2.8946-3.6182-7.0917-5.4997-4.1972-2.0262-9.6969-2.0262t-9.6969 2.0262-7.0917 5.6445q-2.7499 3.4735-4.1972 8.2495-1.4473 4.7761-1.4473 10.42 0 5.4998 1.4473 10.421 1.4473 4.776 4.1972 8.3943 2.8946 3.6182 7.0917 5.6444 4.1972 2.0262 9.6969 2.0262t9.6969-2.0262q4.3419-2.0262 7.0917-5.6444 2.8946-3.6183 4.3419-8.3943 1.4473-4.9208 1.4473-10.565z"/>
       <path id="path3392" style="" d="m149.25 6183.3q0 6.3681-1.592 12.736-1.592 6.2234-5.0655 11.289t-9.118 8.2496q-5.4997 3.184-13.46 3.184-6.8023 0-12.591-2.7498-5.6444-2.8946-8.9732-8.3943v33.867h15.775v6.6576h-35.748v-6.6576h12.013v-81.627h-12.157v-6.8023h20.117v13.749q1.4473-2.8946 3.6182-5.6444 2.1709-2.7499 4.9208-4.7761 2.8946-2.1709 6.3681-3.3288 3.6182-1.3025 8.1048-1.3025 6.2234 0 11.289 2.1709 5.0655 2.171 8.6838 6.2234 3.763 4.0524 5.7892 9.9863 2.0262 5.7892 2.0262 13.17zm-8.3943 0.7236q0-6.0786-1.592-10.71-1.592-4.776-4.4866-7.9601-2.7499-3.184-6.5128-4.776-3.763-1.7368-8.2496-1.7368t-8.3943 2.171q-3.9077 2.0262-6.8023 5.2102-2.7499 3.1841-4.4866 7.0917-1.7368 3.763-1.8815 7.3812v11.434q0 4.0524 1.592 7.6706 1.592 3.4735 4.3419 6.2234 2.7499 2.6051 6.3681 4.1971 3.763 1.4473 7.9601 1.4473 6.0786 0 10.276-2.3157 4.1972-2.4604 6.8023-6.2233 2.6051-3.9077 3.763-8.8285 1.3026-5.0655 1.3026-10.276z"/>
       <path id="path3394" style="" d="m202.78 6217.3v-6.6576h12.013v-31.985q0-5.4997-1.3026-9.2626-1.1578-3.763-3.3288-6.0787-2.1709-2.4604-5.2102-3.4735t-6.5128-1.0131q-4.4866 0-8.2496 1.7368-3.6182 1.7367-6.3681 4.4866-2.7499 2.7498-4.3419 6.3681-1.592 3.4735-1.7368 7.0917v32.13h11.868v6.6576h-31.696v-6.6576h11.868v-86.259h-11.868v-6.6575h19.828v47.471q3.3288-6.2234 9.1179-9.8416 5.9339-3.6182 13.894-3.6182 4.7761 0 8.8285 1.4473t6.947 4.4866 4.4866 7.8154q1.7368 4.776 1.7368 11.289v33.867h11.868v6.6576h-31.84z"/>
       <path id="path3396" style="" d="m303.62 6185.2q0 7.2365-2.1709 13.46-2.1709 6.0786-6.2234 10.565-4.0524 4.4866-9.8416 7.0917-5.7892 2.4604-13.17 2.4604-7.2365 0-13.026-2.4604-5.6444-2.6051-9.5521-6.947-3.9077-4.4866-5.9339-10.565-2.0262-6.0786-2.0262-13.17 0-6.947 2.0262-13.17 2.0262-6.2234 5.9339-10.71 3.9077-4.6313 9.6969-7.2365 5.7892-2.7498 13.46-2.7498 7.5259 0 13.315 2.7498 5.7892 2.6052 9.6969 7.2365 3.9077 4.4866 5.7892 10.565 2.0262 6.0787 2.0262 12.881zm-8.539-0.1447q0-5.6444-1.4473-10.42-1.4473-4.7761-4.3419-8.2496-2.8946-3.6182-7.0917-5.4997-4.1972-2.0262-9.6969-2.0262t-9.6969 2.0262-7.0917 5.6445q-2.7499 3.4735-4.1972 8.2495-1.4473 4.7761-1.4473 10.42 0 5.4998 1.4473 10.421 1.4473 4.776 4.1972 8.3943 2.8946 3.6182 7.0917 5.6444 4.1972 2.0262 9.6969 2.0262t9.6969-2.0262q4.3419-2.0262 7.0917-5.6444 2.8946-3.6183 4.3419-8.3943 1.4473-4.9208 1.4473-10.565z"/>
       <path id="path3398" style="" d="m358.87 6217.3v-6.6576h11.868v-31.985q0-5.4997-1.3026-9.2626-1.1578-3.763-3.3288-6.0787-2.1709-2.4604-5.0655-3.4735t-6.2234-1.0131q-4.6313 0-8.539 1.7368-3.763 1.592-6.5128 4.4866-2.6051 2.7498-4.1972 6.3681-1.592 3.4735-1.7368 7.2364v31.985h11.868v6.6576h-31.84v-6.6576h12.013v-50.8h-12.157v-6.8023h20.117v11.868q3.3288-6.0786 9.1179-9.5521 5.9339-3.6182 13.749-3.6182 4.7761 0 8.8285 1.4473t6.947 4.4866 4.4866 7.8154q1.7368 4.776 1.7368 11.289v33.867h11.868v6.6576h-31.696z"/>
       <path id="path3400" style="" d="m453.57 6199.4q-0.72365 4.0524-2.7499 7.6707-2.0262 3.4735-5.355 6.0786t-7.8154 4.1972q-4.4866 1.4472-10.131 1.4472-6.8023 0-12.302-2.1709-5.355-2.3157-9.2627-6.5128-3.9077-4.1972-6.0786-10.276-2.0262-6.0786-2.0262-13.749 0-7.5259 2.0262-13.749 2.0262-6.3681 5.7892-10.855 3.763-4.6313 8.9732-7.0917 5.355-2.6051 12.013-2.6051 6.5128 0 11.434 2.3156 5.0655 2.3157 8.2496 6.2234 3.3288 3.9077 4.9208 9.118 1.7368 5.0655 1.7368 10.565 0 3.184-0.72365 7.2365h-46.024q0.28946 11.723 5.9339 18.091 5.6444 6.3681 15.92 6.3681 7.6706 0 12.302-3.4735 4.7761-3.6182 6.5128-10.42l6.6576 1.592zm-8.9732-18.815q0.43419-3.9077-0.57892-7.6706-0.86837-3.9077-3.184-6.9471-2.1709-3.184-5.9339-5.0655-3.6182-2.0262-8.6838-2.0262-4.7761 0-8.3943 1.7368-3.4735 1.7367-5.9339 4.776-2.3157 3.0393-3.763 6.947-1.3026 3.9077-1.7368 8.2496h38.209z"/>
      </g>
     </g>
    </g>
   </g>
  </g>
 </g>
</svg>
