<!-- Created with Inkscape (http://www.inkscape.org/) -->
<svg id="svg3513" xmlns:inkscape="http://www.inkscape.org/namespaces/inkscape" xmlns:rdf="http://www.w3.org/1999/02/22-rdf-syntax-ns#" xmlns="http://www.w3.org/2000/svg" sodipodi:docname="mozilla-fr_final_svg.svg" height="166.87" viewBox="0 0 687.047 166.86701" width="687.05" version="1.1" xmlns:cc="http://creativecommons.org/ns#" xmlns:dc="http://purl.org/dc/elements/1.1/" inkscape:version="0.91 r" xmlns:sodipodi="http://sodipodi.sourceforge.net/DTD/sodipodi-0.dtd">
 <sodipodi:namedview id="namedview13" bordercolor="#666666" inkscape:pageshadow="2" guidetolerance="10" pagecolor="#ffffff" gridtolerance="10" inkscape:window-maximized="1" inkscape:zoom="0.59871186" objecttolerance="10" borderopacity="1" inkscape:current-layer="layer2" inkscape:cx="515.26687" inkscape:cy="5.0004474" units="px" inkscape:window-y="-3" inkscape:window-x="-4" inkscape:window-width="1920" showgrid="false" inkscape:pageopacity="0" inkscape:window-height="1025"/>
 <metadata id="metadata3518">
  <rdf:RDF>
   <cc:Work rdf:about="">
    <dc:format>image/svg+xml</dc:format>
    <dc:type rdf:resource="http://purl.org/dc/dcmitype/StillImage"/>
    <dc:title/>
   </cc:Work>
  </rdf:RDF>
 </metadata>
 <g id="layer2" inkscape:label="Layer 1" inkscape:groupmode="layer" transform="translate(0 -885.5)">
  <g id="g3760">
   <g id="g3751">
    <g id="g3686" transform="translate(-7.2296 798.46)">
     <g id="layer1" transform="translate(-11.17 -200.78)">
      <g id="flowRoot3556-7-4-7-0-0-6-4-8-8-1-1-9" transform="matrix(.089248 0 0 .089248 18.4 287.81)">
       <path id="path3679" inkscape:connector-curvature="0" d="m5529.7 1386.6q-8.273 3.3092-16.546 4.9638-6.6184 0-11.582 0-26.474 0-39.71-11.582-11.582-13.237-11.582-46.329v-322.65q0-64.529-24.819-110.86-23.164-47.983-64.529-79.421-41.365-33.092-94.312-47.983-52.947-16.546-112.51-16.546-46.329 0-84.385 3.3092-36.401 3.3092-74.457 11.582-36.401 8.273-76.112 21.51-38.056 11.582-86.039 31.437l-28.128 172.08 168.77 19.855 24.819-84.385q26.474-14.891 52.947-18.201 28.128-3.3092 62.875-3.3092 44.674 0 67.839 14.891 24.819 14.891 36.401 39.71 11.582 23.164 13.237 52.947 1.6546 29.783 1.6546 59.566v24.819q-28.128-4.9638-59.566-4.9638-29.783-1.6546-59.566-1.6546-64.529 0-127.4 9.9276-62.875 9.9276-112.51 34.747-47.983 24.819-77.766 69.493-29.783 43.02-29.783 110.86 0 59.566 19.855 100.93 21.51 39.71 52.947 64.529 33.092 24.819 74.457 36.401t81.075 11.582q44.674 0 81.075-13.237 38.056-11.582 67.839-31.437 29.783-21.51 51.293-47.983 23.164-26.474 38.056-54.602 8.273 69.493 47.983 109.2 41.365 38.056 117.48 38.056 34.747 0 69.493-9.9276 34.747-8.273 64.529-24.819l-3.3092-112.51zm-456.67-3.3092q-47.983 0-69.493-24.819-19.855-26.474-19.855-61.22 0-62.875 43.02-82.73 43.02-21.51 100.93-21.51 26.474 0 52.947 3.3092 26.474 3.3092 52.947 6.6184-1.6546 46.329-16.546 81.075-14.891 33.092-38.056 56.256-21.51 21.51-49.638 33.092-28.128 9.9276-56.256 9.9276zm-498-1004.4-321 1138.4h208.48l322.65-1138.4h-210.13zm-431.85 0-322.65 1138.4h210.13l322.65-1138.4h-210.13zm-685 392.14v268.05h221.72v-268.05h-221.72zm0 478.18v268.05h221.72v-268.05h-221.72zm-325.96-8.273-34.747 115.82h-241.57l413.65-474.87-16.546-110.86h-656.88l-26.474 261.43 157.19 16.546 33.092-117.48h231.64l-410.34 473.22 21.51 112.51h653.57l44.674-261.43-168.77-14.891zm-1068.9-484.74q-100.93 0-177.04 31.437-74.457 31.437-124.1 86.039-49.638 54.602-74.457 127.4-24.819 72.802-24.819 153.88 0 89.348 28.128 160.5 28.128 71.148 79.421 119.13 51.293 47.983 122.44 74.457 71.148 24.819 158.84 24.819 89.348 0 163.81-26.474 76.112-28.128 130.71-77.766 56.256-51.293 86.039-122.44 31.437-71.148 31.437-160.5 0-79.421-24.819-148.91-24.819-71.148-74.457-124.1-49.638-54.602-125.75-86.039-74.457-31.437-175.39-31.437zm-6.6184 613.86q-43.02 0-76.112-16.546-31.437-18.201-54.602-49.638-21.51-31.437-33.092-72.802t-11.582-89.348q0-104.24 47.983-162.15 47.983-59.566 130.71-59.566 76.112 0 129.06 52.947 52.947 52.947 52.947 165.46 0 107.55-51.293 170.42-49.638 61.22-134.02 61.22zm-585.73-13.237v-340.85q0-66.184-21.51-115.82-21.51-49.638-57.911-81.075-34.747-31.437-81.075-46.329-44.674-16.546-94.312-16.546-89.348 0-152.22 44.674-62.875 43.02-92.658 117.48-26.474-84.385-94.312-122.44-66.184-39.71-148.91-39.71-79.421 0-137.33 34.747-56.256 34.747-89.348 92.658v-112.51h-312.72v162.15h99.276v423.58h-99.276v160.5h453.36v-160.5h-140.64v-261.43q0-79.421 33.092-127.4 34.747-49.638 110.86-49.638 62.875 0 94.312 41.365 33.092 41.365 33.092 138.99v418.61h312.72v-160.5h-99.276v-261.43q0-79.421 33.092-127.4 33.092-49.638 109.2-49.638 66.184 0 97.621 41.365 33.092 41.365 33.092 138.99v418.61h312.72v-160.5h-100.93zm-1471-1356.8h5716.6v1869.7h-5716.6v-1869.7z"/>
      </g>
      <g id="flowRoot3589-9-9-7-9-9-5-0-0-2-2-0" transform="matrix(1.4132 0 0 .96681 1019.1 -5581.9)">
       <path id="path3682" inkscape:connector-curvature="0" d="m-282.8 6116.3q4.4866 0 7.526 0.8684 3.1841 0.7236 6.2234 3.3288l2.3157 14.328-6.6576 0.8684-2.6051-11.289q-2.8946-1.1579-7.9602-1.1579-6.0787 0-9.4074 4.3419-3.1841 4.3419-3.1841 12.736v12.736h16.933v6.8023h-16.933v50.8h15.631v6.6576h-35.459v-6.6576h11.868v-50.8h-9.5522v-6.8023h9.5522v-12.447q0-5.7892 1.7368-10.276 1.8815-4.6314 4.9208-7.6707 3.0393-3.184 6.947-4.7761 3.9077-1.592 8.1049-1.592z"/>
       <path id="path3684" inkscape:connector-curvature="0" d="m-234.83 6151.9q3.4735 0 5.9339 0.7236 2.4604 0.5789 4.6314 2.6052l2.3157 14.328-6.6576 0.8684-2.4604-11q-2.171-0.5789-4.9208-0.5789-3.1841 0-5.7892 1.4473t-4.6314 3.9077q-1.8815 2.4604-3.0393 6.0787-1.0131 3.4735-1.0131 7.5259v32.854h15.776v6.6576h-35.748v-6.6576h12.013v-50.8h-12.157v-6.8023h19.683v11.434q2.0262-5.4998 6.3681-8.9733 4.4866-3.6182 9.6969-3.6182z"/>
      </g>
     </g>
    </g>
   </g>
  </g>
 </g>
</svg>
