<?xml version="1.0" encoding="UTF-8" standalone="no"?>
<!-- Generator: Adobe Illustrator 19.0.0, SVG Export Plug-In . SVG Version: 6.00 Build 0)  -->
<svg xmlns:dc="http://purl.org/dc/elements/1.1/" xmlns:cc="http://creativecommons.org/ns#" xmlns:rdf="http://www.w3.org/1999/02/22-rdf-syntax-ns#" xmlns:svg="http://www.w3.org/2000/svg" xmlns="http://www.w3.org/2000/svg" xmlns:sodipodi="http://sodipodi.sourceforge.net/DTD/sodipodi-0.dtd" xmlns:inkscape="http://www.inkscape.org/namespaces/inkscape" version="1.1" id="Calque_1" x="0px" y="0px" viewBox="0 0 194.28002 74.89" xml:space="preserve" sodipodi:docname="propulse_par_gandi.svg" width="194.28003" height="74.890007" inkscape:version="0.92.4 (5da689c313, 2019-01-14)"><metadata id="metadata25"><rdf:RDF><cc:Work rdf:about=""><dc:format>image/svg+xml</dc:format><dc:type rdf:resource="http://purl.org/dc/dcmitype/StillImage"/><dc:title/></cc:Work></rdf:RDF></metadata><defs id="defs23"/><sodipodi:namedview pagecolor="#ffffff" bordercolor="#666666" borderopacity="1" objecttolerance="10" gridtolerance="10" guidetolerance="10" inkscape:pageopacity="0" inkscape:pageshadow="2" inkscape:window-width="2560" inkscape:window-height="1407" id="namedview21" showgrid="false" inkscape:pagecheckerboard="true" inkscape:zoom="1.1212866" inkscape:cx="582.62649" inkscape:cy="520.87702" inkscape:window-x="0" inkscape:window-y="-4" inkscape:window-maximized="1" inkscape:current-layer="Calque_1"/>
<g id="XMLID_29_" transform="translate(-200.66234,-382.62021)">
	<g id="XMLID_26_">
		<path id="XMLID_47_" d="m 279.238,417.106 c -4.149,0 -7.139,0.58 -7.808,1.071 -0.312,0.224 -0.401,0.669 -0.401,1.16 0,0.313 0.045,1.561 0.49,2.32 1.384,-0.625 4.283,-1.027 6.291,-1.027 1.383,0 2.365,0.536 2.365,2.633 v 3.747 c -0.892,-0.445 -2.275,-0.579 -3.391,-0.579 -2.855,0 -5.799,1.115 -5.799,7.316 0,6.781 3.122,7.049 6.379,7.004 2.9,0 4.997,-0.715 6.202,-1.472 0,0 0.268,-6.335 0.268,-14.143 v -2.587 c 0,-4.016 -1.696,-5.443 -4.596,-5.443 z m 0.802,19.897 c -0.401,0.445 -1.517,0.714 -2.409,0.714 -1.74,0 -2.855,-0.179 -2.855,-4.016 0,-3.926 1.516,-4.55 3.302,-4.55 0.624,0 1.516,0.089 2.097,0.402 0,3.212 -0.135,7.45 -0.135,7.45 z m -18.101,-19.541 c -0.759,-0.223 -1.651,-0.357 -2.231,-0.357 -4.372,0 -7.406,2.453 -7.406,8.388 0,2.855 0.67,5.309 2.722,6.647 -1.294,1.07 -2.766,2.9 -2.811,4.06 -0.045,1.159 0.981,1.963 2.677,2.454 -1.874,1.248 -3.346,3.033 -3.346,5.174 0,2.321 1.16,5.087 7.182,5.087 5.933,0 8.521,-3.48 8.521,-7.317 0,-3.523 -2.677,-4.818 -5.532,-5.218 -3.346,-0.447 -5.622,-0.58 -5.622,-1.339 0,-0.625 0.58,-1.383 1.16,-2.008 0.58,0.133 1.249,0.178 2.009,0.178 5.175,0 7.227,-3.079 7.227,-7.807 0,-2.231 -0.67,-3.926 -1.741,-5.042 0.625,0.135 1.16,0.223 1.651,0.223 0.759,0 1.249,-0.447 1.249,-1.427 0,-0.803 -0.178,-1.383 -0.356,-1.696 z m -4.283,21.683 c 0.267,0.044 0.536,0.089 0.848,0.089 3.927,0.267 5.086,0.847 5.086,2.855 0,1.561 -1.383,3.434 -4.551,3.434 -3.034,0 -3.748,-1.115 -3.748,-2.541 0,-1.428 1.071,-2.901 2.365,-3.837 z m 1.785,-8.7 c -2.767,0 -3.302,-2.007 -3.302,-5.219 0,-3.927 1.517,-5.443 3.435,-5.443 2.141,0 3.256,1.383 3.256,4.639 0.001,3.881 -1.025,6.023 -3.389,6.023 z m 42.984,-5.13 c 0,-6.157 -0.58,-8.209 -5.978,-8.209 -2.409,0 -5.622,0.669 -7.361,1.473 v 21.503 c 3.703,0 3.614,0 3.614,-0.757 v -18.203 c 0.98,-0.624 2.364,-0.848 3.346,-0.848 2.365,0 2.632,1.338 2.632,4.862 v 14.945 c 3.792,0 3.747,0 3.747,-0.757 z m 74.852,-0.893 c 0,-4.773 -1.918,-7.316 -5.667,-7.316 -3.97,0 -7.896,1.383 -7.896,12.983 0,9.101 2.99,10.662 7.139,10.662 3.346,0 6.155,-1.072 6.155,-1.695 0,-0.982 -0.088,-2.543 -0.311,-3.212 -1.517,0.847 -3.302,1.383 -5.443,1.383 -2.409,0 -3.657,-0.804 -3.791,-6.202 2.14,0 6.245,-0.09 9.324,-0.714 0.356,-1.606 0.49,-3.881 0.49,-5.889 z m -3.748,3.167 c -1.561,0.447 -4.327,0.535 -6.067,0.491 0.267,-6.202 1.918,-7.807 3.747,-7.807 1.918,0 2.498,1.338 2.542,4.551 0,0.848 -0.044,1.963 -0.222,2.765 z m -35.446,7.763 c -1.606,0 -2.498,1.204 -2.498,2.588 0,1.561 0.625,2.543 2.498,2.543 1.561,0 2.499,-1.159 2.499,-2.543 0,-1.561 -0.669,-2.588 -2.499,-2.588 z m 14.98,-18.246 c -2.408,0 -5.621,0.669 -7.362,1.473 v 21.503 c 3.704,0 3.615,0 3.615,-0.757 v -18.203 c 0.981,-0.624 2.363,-0.848 3.345,-0.848 2.364,0 2.632,1.338 2.632,4.862 v 14.945 c 3.791,0 3.747,0 3.747,-0.757 v -14.009 c 10e-4,-6.157 -0.58,-8.209 -5.977,-8.209 z m -24.472,-9.681 c -1.427,0 -2.052,1.072 -2.052,2.677 -0.045,2.097 0.67,2.766 1.829,2.811 1.338,0 2.008,-1.071 2.052,-2.9 0,-1.874 -0.446,-2.588 -1.829,-2.588 z m -11.409,1.517 v 9.057 c -0.759,-0.536 -1.785,-0.893 -3.168,-0.893 -3.836,0 -6.871,3.792 -6.871,12.626 0,9.681 3.035,11.019 7.272,11.019 2.767,0 4.864,-0.447 6.38,-1.338 V 407.29 c -2.945,0 -3.613,0 -3.613,1.652 z m 0,27.883 c -0.714,0.491 -1.651,0.669 -2.633,0.669 -2.096,0 -3.345,-0.981 -3.345,-8.164 0,-7.317 1.962,-9.057 3.925,-9.057 0.935,0 1.472,0.133 2.052,0.58 v 15.972 z m 9.402,-17.399 v 20.655 c 3.658,0 3.703,0 3.703,-0.757 v -21.549 c -2.945,0 -3.703,0 -3.703,1.651 z m 62.369,18.246 c -1.605,0 -1.605,-1.605 -1.605,-3.524 v -13.25 h 3.836 c 0.715,0 0.715,-0.313 0.715,-3.123 h -4.551 v -8.03 c -2.944,0 -3.613,0 -3.613,1.25 v 6.78 h -2.276 c -0.759,0 -0.802,0.357 -0.802,3.123 h 3.079 v 12.848 c 0,4.015 0,7.049 4.237,7.049 1.74,0 3.837,-0.358 3.837,-1.428 0,-0.892 -0.134,-1.874 -0.269,-2.364 -0.936,0.402 -1.338,0.669 -2.588,0.669 z" inkscape:connector-curvature="0"/>
		<g id="XMLID_27_">
			<g id="XMLID_63_">
				<path id="XMLID_64_" d="m 221.152,416.263 c 2.143,0 4.158,-0.835 5.674,-2.35 1.515,-1.515 2.35,-3.529 2.35,-5.673 0,-2.143 -0.835,-4.158 -2.35,-5.674 -1.515,-1.515 -3.53,-2.35 -5.673,-2.35 -2.143,0 -4.158,0.835 -5.673,2.35 -1.515,1.515 -2.35,3.53 -2.35,5.673 0,2.143 0.834,4.158 2.35,5.673 1.515,1.516 3.53,2.351 5.672,2.351 z m -1.666,-9.69 c 0.445,-0.446 1.037,-0.691 1.667,-0.691 0.63,0 1.222,0.245 1.667,0.691 0.445,0.446 0.691,1.037 0.691,1.667 0,0.63 -0.245,1.222 -0.69,1.667 -0.445,0.446 -1.038,0.691 -1.667,0.691 -0.629,0 -1.222,-0.245 -1.667,-0.69 -0.445,-0.445 -0.691,-1.037 -0.691,-1.667 -0.001,-0.631 0.244,-1.223 0.69,-1.668 z m 1.407,23.627 c 1.544,-0.961 3.199,-1.857 4.8,-2.723 1.846,-0.999 3.595,-1.946 5.132,-2.96 2.734,-1.495 5.139,-3.695 7.162,-6.554 1.109,-1.567 0.738,-3.737 -0.829,-4.845 -1.567,-1.109 -3.737,-0.738 -4.846,0.829 -1.362,1.925 -2.869,3.352 -4.584,4.338 -0.158,0.091 -0.319,0.178 -0.481,0.262 -0.149,0.077 -0.3,0.151 -0.453,0.222 -1.602,0.742 -3.385,1.132 -5.448,1.194 -2.062,-0.062 -3.847,-0.452 -5.449,-1.194 -2.11,-0.978 -3.915,-2.554 -5.519,-4.821 -1.109,-1.567 -3.279,-1.938 -4.845,-0.829 -1.567,1.108 -1.939,3.278 -0.83,4.845 2.292,3.239 5.075,5.632 8.272,7.113 0.628,0.291 1.269,0.547 1.925,0.768 -2.715,1.961 -5.651,4.709 -7.058,8.477 -1.46,3.91 -1.442,8.143 0.051,11.921 1.432,3.624 4.082,6.571 7.464,8.3 3.767,1.926 8.562,1.93 12.827,0.01 4.475,-2.014 7.395,-5.703 7.809,-9.868 0.436,-4.384 -1.666,-8.288 -5.356,-9.945 -3.822,-1.716 -8.133,-0.491 -10.983,3.12 -1.19,1.507 -0.932,3.693 0.575,4.883 1.507,1.19 3.693,0.932 4.883,-0.575 0.847,-1.073 1.823,-1.469 2.677,-1.085 0.728,0.327 1.448,1.266 1.284,2.915 -0.163,1.633 -1.597,3.25 -3.744,4.216 -2.323,1.045 -4.932,1.098 -6.809,0.139 -1.874,-0.958 -3.352,-2.615 -4.161,-4.664 -0.608,-1.538 -1.102,-3.992 -0.003,-6.934 0.823,-2.21 2.901,-4.293 6.537,-6.555 z" inkscape:connector-curvature="0"/>
			</g>
		</g>
	</g>
	<g id="XMLID_28_">
		<path id="XMLID_291_" d="m 256.671,385.633 c 2.646,0 3.863,1.239 3.863,4.157 0,3.443 -1.764,4.577 -3.842,4.577 h -0.735 v 5.606 c 0,0.357 0.021,0.357 -1.722,0.357 v -14.361 c 0,0 0,-0.336 0.357,-0.336 h 0.063 0.063 z m 0.315,1.491 c -0.567,0 -0.903,0.021 -1.029,0.042 v 5.585 c 0.147,0 0.735,0.042 0.903,0.042 1.176,0 1.785,-0.861 1.785,-3.212 -10e-4,-1.492 -0.421,-2.457 -1.659,-2.457 z" inkscape:connector-curvature="0"/>
		<path id="XMLID_294_" d="m 261.837,390.462 c 0.966,-0.693 1.827,-0.945 2.855,-0.945 1.071,0 1.47,0.252 1.47,0.777 0,0.294 -0.042,0.756 -0.189,1.113 -0.315,-0.168 -0.609,-0.252 -1.008,-0.252 -0.462,0 -0.987,0.168 -1.386,0.567 l -0.021,8.251 c 0,0.357 0.021,0.357 -1.722,0.357 v -9.868 z" inkscape:connector-curvature="0"/>
		<path id="XMLID_296_" d="m 269.963,389.538 c 2.205,0 3.275,1.218 3.275,5.48 0,3.905 -1.197,5.669 -3.401,5.669 -2.204,0 -3.338,-0.882 -3.338,-5.606 0,-3.842 1.281,-5.543 3.464,-5.543 z m -0.126,9.7 c 0.903,0 1.554,-0.924 1.554,-4.199 0,-3.338 -0.483,-4.031 -1.47,-4.031 -0.924,0 -1.575,0.84 -1.575,4.115 0,3.464 0.525,4.115 1.491,4.115 z" inkscape:connector-curvature="0"/>
		<path id="XMLID_299_" d="m 274.709,390.336 c 0.861,-0.525 1.932,-0.84 3.065,-0.84 2.079,0 3.422,1.05 3.422,4.493 0,5.648 -1.953,6.698 -3.17,6.698 -0.777,0 -1.302,-0.294 -1.617,-0.63 v 4.346 c -0.273,0.084 -0.609,0.126 -1.008,0.126 -0.588,0 -0.693,-0.126 -0.693,-0.714 v -13.479 z m 1.701,8.104 c 0.252,0.504 0.651,0.693 1.071,0.693 0.672,-0.021 1.827,-0.651 1.827,-4.955 0,-2.646 -0.546,-3.17 -1.68,-3.17 -0.441,0 -0.861,0.168 -1.218,0.441 z" inkscape:connector-curvature="0"/>
		<path id="XMLID_302_" d="m 288.988,399.973 c -0.798,0.441 -1.995,0.672 -3.128,0.672 -2.771,0 -3.149,-1.281 -3.149,-3.863 v -6.614 c 0,-0.336 0,-0.336 1.764,-0.336 v 7.034 c 0,1.659 0.21,2.289 1.323,2.289 0.462,0 1.05,-0.105 1.491,-0.399 v -8.587 c 0,-0.336 -0.042,-0.336 1.701,-0.336 v 10.14 z" inkscape:connector-curvature="0"/>
		<path id="XMLID_304_" d="m 292.643,399.973 c 0,0.357 0.021,0.357 -1.701,0.357 v -14.655 c 0,-0.777 0.336,-0.777 1.701,-0.777 z" inkscape:connector-curvature="0"/>
		<path id="XMLID_306_" d="m 300.328,390.609 c 0,0.273 -0.189,0.714 -0.378,0.966 -0.63,-0.378 -1.26,-0.567 -2.058,-0.567 -0.987,0 -1.68,0.336 -1.68,1.008 0,0.357 0.168,0.672 0.735,1.218 l 2.079,1.89 c 0.903,0.882 1.239,1.554 1.239,2.562 0,1.911 -1.323,2.96 -3.464,2.96 -1.491,0 -2.562,-0.357 -2.562,-0.882 0,-0.315 0.105,-0.798 0.315,-1.155 0.609,0.357 1.26,0.504 2.079,0.504 1.113,0 1.701,-0.441 1.701,-1.365 0,-0.483 -0.21,-1.008 -0.84,-1.554 l -2.121,-2.016 c -0.819,-0.777 -1.155,-1.512 -1.155,-2.247 0,-1.533 1.113,-2.394 3.233,-2.394 2.31,0.001 2.877,0.673 2.877,1.072 z" inkscape:connector-curvature="0"/>
		<path id="XMLID_308_" d="m 307.887,392.96 c 0,0.945 -0.063,2.016 -0.231,2.771 -1.449,0.294 -3.38,0.336 -4.388,0.336 0.063,2.541 0.651,2.918 1.785,2.918 1.008,0 1.848,-0.252 2.562,-0.651 0.105,0.315 0.147,1.05 0.147,1.512 0,0.294 -1.323,0.798 -2.897,0.798 -1.953,0 -3.359,-0.735 -3.359,-5.018 0,-5.459 1.848,-6.11 3.716,-6.11 1.763,10e-4 2.665,1.198 2.665,3.444 z m -4.619,1.722 c 0.819,0.021 2.121,-0.021 2.855,-0.231 0.084,-0.378 0.105,-0.903 0.105,-1.302 -0.021,-1.512 -0.294,-2.142 -1.197,-2.142 -0.86,10e-4 -1.637,0.757 -1.763,3.675 z m 0.21,-7.307 c 0.966,-1.092 2.646,-2.478 2.813,-2.478 0.399,0 0.714,0.777 0.798,1.281 -0.336,0.399 -2.226,1.743 -2.939,2.142 -0.399,0 -0.672,-0.945 -0.672,-0.945 z" inkscape:connector-curvature="0"/>
		<path id="XMLID_312_" d="m 314.294,390.336 c 0.861,-0.525 1.932,-0.84 3.065,-0.84 2.079,0 3.422,1.05 3.422,4.493 0,5.648 -1.953,6.698 -3.17,6.698 -0.777,0 -1.302,-0.294 -1.617,-0.63 v 4.346 c -0.273,0.084 -0.609,0.126 -1.008,0.126 -0.588,0 -0.693,-0.126 -0.693,-0.714 v -13.479 z m 1.7,8.104 c 0.252,0.504 0.651,0.693 1.071,0.693 0.672,-0.021 1.827,-0.651 1.827,-4.955 0,-2.646 -0.546,-3.17 -1.68,-3.17 -0.441,0 -0.861,0.168 -1.218,0.441 z" inkscape:connector-curvature="0"/>
		<path id="XMLID_315_" d="m 321.854,390.567 c 0,-0.231 0.042,-0.441 0.189,-0.546 0.315,-0.231 1.722,-0.504 3.674,-0.504 1.365,0 2.163,0.672 2.163,2.562 v 1.218 c 0,3.674 -0.126,6.656 -0.126,6.656 -0.567,0.357 -1.554,0.693 -2.918,0.693 -1.533,0.021 -3.002,-0.105 -3.002,-3.296 0,-2.918 1.386,-3.443 2.729,-3.443 0.525,0 1.176,0.063 1.596,0.273 v -1.764 c 0,-0.987 -0.462,-1.239 -1.113,-1.239 -0.945,0 -2.31,0.189 -2.96,0.483 -0.211,-0.358 -0.232,-0.946 -0.232,-1.093 z m 4.304,4.808 c -0.273,-0.147 -0.693,-0.189 -0.987,-0.189 -0.84,0 -1.554,0.294 -1.554,2.142 0,1.806 0.525,1.89 1.344,1.89 0.42,0 0.945,-0.126 1.134,-0.336 0,-0.001 0.063,-1.995 0.063,-3.507 z" inkscape:connector-curvature="0"/>
		<path id="XMLID_318_" d="m 329.603,390.462 c 0.966,-0.693 1.827,-0.945 2.855,-0.945 1.071,0 1.47,0.252 1.47,0.777 0,0.294 -0.042,0.756 -0.189,1.113 -0.315,-0.168 -0.609,-0.252 -1.008,-0.252 -0.462,0 -0.987,0.168 -1.386,0.567 l -0.021,8.251 c 0,0.357 0.021,0.357 -1.722,0.357 v -9.868 z" inkscape:connector-curvature="0"/>
	</g>
</g>
</svg>